<svg width="24" height="24" viewBox="0 0 24 24" fill="none" xmlns="http://www.w3.org/2000/svg">
<path d="M19.6351 3H4.36493C3.68246 3 3.08531 3.6 3 4.28571V19.7143C3 20.4 3.59716 21 4.36493 21H19.6351C20.3175 21 20.9147 20.4 21 19.7143V4.28571C21 3.6 20.4028 3 19.6351 3ZM8.37441 18.3429H5.72986V9.77143H8.37441V18.3429V18.3429ZM7.00948 8.57143C6.1564 8.57143 5.47393 7.88571 5.47393 7.02857C5.47393 6.17143 6.1564 5.48571 7.00948 5.48571C7.86256 5.48571 8.54502 6.17143 8.54502 7.02857C8.54502 7.88571 7.86256 8.57143 7.00948 8.57143ZM18.3555 18.3429H15.7109V14.1429C15.7109 13.1143 15.7109 11.8286 14.346 11.8286C12.981 11.8286 12.7251 12.9429 12.7251 14.0571V18.3429H10.0806V9.77143H12.6398V10.9714C13.1517 10.1143 14.09 9.51429 15.1137 9.6C17.8436 9.6 18.2701 11.4 18.2701 13.7143L18.3555 18.3429Z" fill="#1A1E23"/>
</svg>
